<?xml version="1.0" standalone="no"?>
<!DOCTYPE svg PUBLIC "-//W3C//DTD SVG 20010904//EN"
 "http://www.w3.org/TR/2001/REC-SVG-20010904/DTD/svg10.dtd">
<svg version="1.0" xmlns="http://www.w3.org/2000/svg"
 width="1400.000000pt" height="1400.000000pt" viewBox="0 0 1400.000000 1400.000000"
 preserveAspectRatio="xMidYMid meet">
<metadata>
Created by potrace 1.14, written by Peter Selinger 2001-2017
</metadata>
<g transform="translate(0.000000,1400.000000) scale(0.100000,-0.100000)"
fill="#000000" stroke="none">
<path d="M8400 13969 c0 -17 5 -39 10 -49 12 -22 -4 -105 -25 -130 -26 -32
-35 -88 -35 -213 0 -91 -6 -163 -21 -240 -18 -95 -19 -116 -8 -156 6 -25 15
-50 18 -56 3 -5 6 -14 7 -20 9 -50 14 -66 25 -86 6 -12 12 -57 12 -98 0 -62
-5 -86 -27 -131 -60 -124 -64 -129 -120 -157 -46 -22 -77 -56 -78 -83 0 -3 -9
-23 -21 -45 -14 -27 -21 -64 -24 -114 -2 -41 -10 -88 -18 -104 -8 -17 -15 -34
-15 -39 0 -14 -60 -68 -87 -79 -13 -5 -48 -9 -77 -9 -49 0 -56 3 -80 34 -14
19 -26 38 -26 41 0 4 -11 20 -24 35 -13 16 -26 46 -29 68 -4 22 -14 45 -22 52
-17 14 -74 8 -145 -16 -73 -25 -156 -21 -215 10 -27 15 -58 37 -68 49 -21 27
-67 121 -67 137 0 28 -63 128 -88 140 -82 40 -133 1 -174 -131 -22 -70 -27
-111 -33 -251 -4 -92 -13 -190 -20 -217 -13 -49 -12 -51 22 -117 29 -55 34
-75 30 -110 -2 -24 -12 -55 -21 -69 -9 -14 -15 -26 -14 -27 5 -6 -62 -67 -88
-81 -16 -9 -40 -26 -54 -39 -14 -13 -28 -25 -33 -26 -21 -5 -68 -59 -79 -91
-14 -41 -12 -63 8 -106 30 -65 44 -117 31 -113 -144 39 -200 66 -207 98 -7 30
-102 85 -165 96 -22 4 -34 9 -27 11 20 7 -134 182 -161 183 -4 0 -30 16 -58
35 -29 19 -81 49 -118 66 -169 78 -167 78 -681 95 -166 6 -205 4 -265 -11
-136 -33 -318 -150 -419 -268 -52 -61 -200 -168 -321 -233 -44 -24 -127 -83
-184 -131 -57 -48 -111 -93 -120 -100 -12 -9 -37 -7 -111 8 -111 24 -235 45
-340 59 -93 12 -117 17 -130 25 -5 3 -33 7 -62 10 -29 2 -80 8 -113 14 -153
27 -204 24 -289 -21 -82 -43 -198 -171 -243 -268 -54 -117 -77 -257 -54 -338
9 -31 9 -32 -12 -20 -12 6 -22 10 -22 9 0 -1 -24 1 -52 5 -29 3 -53 10 -53 15
0 5 -7 9 -15 9 -25 0 -215 104 -215 117 0 17 -50 9 -62 -9 -6 -10 -16 -8 -46
9 -37 21 -49 22 -201 18 -161 -4 -187 -1 -381 38 -41 9 -121 21 -177 27 -126
14 -230 57 -299 126 -40 41 -48 45 -76 38 -18 -3 -65 -6 -105 -6 -62 1 -76 -2
-100 -22 -46 -38 -92 -57 -143 -59 -26 -1 -46 -5 -43 -9 2 -5 -3 -8 -11 -8 -9
0 -16 -3 -16 -7 0 -12 -300 -7 -349 6 -24 7 -57 9 -73 6 -19 -5 -37 -1 -53 9
-13 9 -31 16 -39 16 -8 0 -21 6 -28 13 -7 6 -30 13 -50 13 l-38 1 1 -5366 c1
-2951 5 -5337 10 -5301 71 581 492 1039 1061 1155 98 20 105 21 972 17 l698
-2 -5 -223 c-4 -173 -10 -241 -25 -307 -61 -257 -176 -464 -362 -650 -140
-141 -242 -207 -470 -308 -18 -8 1623 -11 6048 -11 l6072 -1 0 4950 0 4950
-97 0 c-429 0 -827 238 -1048 625 -40 71 -105 222 -105 246 0 5 254 9 625 9
l625 0 0 1521 c0 836 -3 1518 -7 1516 -5 -3 -13 1 -20 8 -8 9 -7 15 8 26 15
11 19 26 19 81 l0 68 -321 0 -320 0 -36 -27 c-34 -26 -43 -28 -122 -27 -86 1
-86 1 -89 28 l-3 27 -147 -3 -147 -3 -1 -25 c-1 -14 -3 -49 -4 -77 -2 -29 -7
-53 -12 -53 -5 0 -7 -4 -3 -9 4 -8 -25 -73 -40 -89 -7 -8 -45 -10 -45 -2 0 5
-6 7 -12 5 -7 -2 -22 2 -33 11 -16 12 -17 18 -8 33 9 14 9 21 0 30 -9 9 -8 14
3 21 13 8 12 10 -2 10 -10 0 -18 5 -18 11 0 5 6 7 13 3 7 -5 6 0 -3 10 -8 11
-13 30 -11 44 2 21 0 24 -16 18 -17 -7 -17 -6 -1 10 16 16 15 18 -7 36 -20 16
-43 18 -189 18 -109 0 -166 -4 -166 -10 0 -6 7 -10 16 -8 20 4 27 -27 11 -45
-7 -6 -12 -33 -11 -59 1 -40 -1 -45 -12 -30 -10 14 -11 12 -7 -13 5 -29 5 -29
-11 -10 -8 11 -16 26 -16 33 0 6 -4 12 -9 12 -6 0 -10 8 -10 18 0 9 -1 38 -1
65 l-1 47 -1904 0 -1905 0 0 -31z m4200 17 c0 -2 -7 -7 -16 -10 -8 -3 -12 -2
-9 4 6 10 25 14 25 6z m-362 -167 c3 -12 2 -12 -6 0 -8 11 -11 10 -15 -5 -4
-16 -5 -15 -6 4 -1 25 20 26 27 1z m39 -21 c-3 -8 -6 -5 -6 6 -1 11 2 17 5 13
3 -3 4 -12 1 -19z m-7 -32 c0 -20 -19 -31 -32 -18 -6 6 -7 15 -4 21 10 16 36
13 36 -3z m-20 -72 c0 -7 4 -15 9 -18 5 -4 7 3 4 14 -3 11 0 20 6 20 6 0 12
-8 13 -17 2 -28 4 -36 12 -61 8 -24 -31 -125 -45 -116 -4 2 -10 0 -14 -6 -9
-14 -55 -12 -56 3 0 10 -2 10 -6 0 -9 -23 -20 -13 -16 15 3 21 2 23 -5 8 -6
-13 -11 -16 -16 -8 -4 6 -2 20 3 30 6 11 8 21 6 24 -2 2 9 19 25 38 17 19 30
41 30 48 0 6 6 12 14 12 8 0 18 5 22 12 5 7 2 9 -8 6 -8 -4 -15 -1 -15 7 0 7
8 10 19 7 10 -2 18 -10 18 -18z m1162 -87 c8 -15 5 -20 -11 -24 -12 -3 -21 -8
-21 -12 0 -3 -11 -7 -25 -7 -14 -1 -25 2 -25 8 0 5 -4 6 -10 3 -5 -3 -10 2
-10 11 0 10 3 15 6 12 3 -4 14 2 24 12 23 23 58 22 72 -3z m-2151 -434 c-8
-15 -10 -15 -11 -2 0 17 10 32 18 25 2 -3 -1 -13 -7 -23z m992 -751 c4 -1 7
-11 7 -22 0 -11 5 -20 10 -20 6 0 10 -7 10 -15 0 -8 5 -15 11 -15 14 0 3 -101
-14 -115 -6 -6 -47 -45 -90 -85 l-78 -75 -21 25 c-11 14 -17 19 -13 13 10 -21
-19 -15 -38 7 -9 11 -13 20 -9 20 4 0 -1 5 -11 11 -9 6 -15 14 -12 20 3 5 0 6
-7 4 -9 -4 -13 3 -13 20 1 14 5 28 8 32 4 3 7 15 7 25 0 10 5 18 10 18 6 0 10
9 10 20 0 11 5 20 10 20 6 0 10 7 10 15 0 10 10 15 30 15 17 0 30 5 30 10 0 6
7 10 15 10 8 0 15 7 15 16 0 13 3 14 15 4 12 -10 16 -9 21 4 3 9 12 16 20 16
7 0 11 6 8 14 -4 12 22 15 59 8z m-2098 -950 c-8 -8 -25 10 -25 26 0 13 2 13
14 -4 8 -10 13 -21 11 -22z m1015 -2 c0 -5 -8 -10 -17 -11 -11 0 -13 -3 -5 -6
6 -2 12 -11 12 -18 0 -7 5 -15 11 -17 6 -2 11 -15 10 -28 0 -14 0 -48 0 -77 0
-28 -5 -54 -11 -58 -5 -3 -10 -19 -10 -35 0 -15 -6 -30 -13 -33 -10 -4 -13 5
-12 30 1 20 -4 41 -13 50 -8 8 -11 18 -6 21 15 11 14 29 -1 42 -21 17 -19 29
4 23 15 -4 19 2 23 31 2 23 0 35 -6 33 -6 -2 -11 -11 -11 -20 0 -8 -4 -19 -8
-23 -11 -11 -8 15 5 55 12 35 25 51 41 51 4 0 7 -4 7 -10z m-1010 -26 c0 -19
-15 -18 -34 2 -21 21 -20 22 9 16 14 -2 25 -11 25 -18z m-5746 -39 c-7 -16
-24 -21 -24 -6 0 8 7 13 27 20 1 1 0 -6 -3 -14z m5748 -58 c5 -45 -17 -67 -40
-42 -16 17 -16 17 0 12 10 -3 19 0 22 9 10 26 7 34 -11 34 -15 0 -16 2 -3 10
24 15 28 12 32 -23z m806 24 c6 -1 12 -5 12 -11 0 -5 -8 -7 -17 -4 -17 5 -17
5 0 -9 9 -8 17 -23 17 -33 -1 -18 -1 -18 -11 -1 -5 9 -15 17 -20 17 -6 0 -17
7 -25 15 -9 9 -11 15 -4 15 6 0 9 4 6 9 -4 5 2 8 11 6 10 -2 24 -4 31 -4z m42
-11 c0 -5 -4 -10 -9 -10 -6 0 -6 -12 -1 -30 6 -21 5 -30 -3 -30 -8 0 -8 -3 0
-11 17 -17 4 -39 -21 -38 -20 0 -20 1 -2 8 15 6 16 10 7 15 -7 5 -18 3 -24 -3
-13 -13 -31 -15 -23 -2 4 5 2 21 -4 35 -7 20 -6 26 5 26 7 0 17 -4 20 -10 3
-5 1 -10 -4 -10 -6 0 -11 -4 -11 -9 0 -5 8 -8 18 -6 9 2 21 4 25 4 5 1 8 13 7
29 -1 15 -2 33 -1 40 1 14 21 17 21 2z m-6649 -21 c-27 -16 -31 -23 -20 -30 9
-6 10 -9 2 -9 -14 0 -99 -56 -109 -71 -3 -6 28 8 70 31 76 42 89 43 60 5 -10
-14 -17 -16 -22 -8 -9 14 -23 6 -38 -22 -6 -11 -22 -20 -35 -20 -16 0 -25 -7
-27 -20 -2 -11 -9 -24 -14 -30 -8 -7 -9 -6 -4 2 3 6 0 13 -6 16 -10 3 -10 7
-1 19 7 8 10 18 6 21 -3 4 1 15 10 25 10 10 14 21 11 24 -3 3 0 9 7 14 8 5 10
3 5 -7 -4 -8 -2 -7 6 2 16 19 109 79 123 79 6 0 -5 -9 -24 -21z m24 -19 c-3
-5 -11 -10 -16 -10 -6 0 -7 5 -4 10 3 6 11 10 16 10 6 0 7 -4 4 -10z m5750
-40 c3 -5 2 -10 -4 -10 -5 0 -13 5 -16 10 -3 6 -2 10 4 10 5 0 13 -4 16 -10z
m39 -46 c8 -21 8 -24 -3 -24 -5 0 -11 9 -14 20 -6 24 8 27 17 4z m944 -9 c0
-14 -4 -25 -8 -25 -5 0 -7 8 -5 18 2 9 4 20 4 25 2 18 9 4 9 -18z m-135 -8
c-3 -5 -12 -6 -20 -3 -8 3 -11 1 -8 -4 3 -6 12 -10 20 -10 9 0 11 -7 7 -22 -3
-12 -7 -17 -10 -10 -6 18 -32 14 -33 -5 0 -15 -2 -15 -8 2 -8 21 -4 46 10 55
13 9 48 6 42 -3z m-833 -7 c0 -5 8 -10 17 -10 14 0 13 -3 -5 -16 -17 -11 -20
-19 -13 -28 6 -7 7 -17 3 -21 -4 -5 -2 -5 5 -1 7 4 17 -2 23 -14 8 -15 8 -20
-2 -21 -9 0 -10 -2 -1 -5 7 -3 9 -12 6 -20 -3 -8 1 -22 8 -31 12 -14 12 -16
-2 -11 -9 3 -22 2 -30 -3 -18 -11 1 -45 23 -41 8 1 15 -5 15 -13 0 -8 -6 -15
-12 -15 -7 0 -11 -15 -10 -40 1 -22 -2 -40 -7 -40 -4 0 -8 -7 -8 -15 0 -8 5
-15 11 -15 6 0 9 -6 6 -13 -3 -7 1 -28 9 -46 12 -28 16 -31 29 -21 10 9 15 9
15 1 0 -13 22 -10 32 4 5 6 8 5 8 -3 0 -7 4 -10 10 -7 5 3 18 2 27 -4 13 -6
24 -5 37 5 13 9 24 10 37 3 15 -7 19 -6 19 6 0 8 5 15 10 15 6 0 10 -4 10 -8
0 -11 61 -3 77 10 7 6 24 7 39 4 17 -5 23 -3 19 4 -3 5 -1 10 4 10 6 0 11 -12
11 -26 0 -14 -4 -23 -9 -20 -5 3 -11 0 -14 -8 -3 -8 2 -16 14 -19 27 -7 14
-35 -19 -39 -15 -2 -26 -7 -25 -13 1 -5 -17 -10 -40 -10 -23 0 -50 -3 -59 -8
-12 -5 -18 -4 -18 4 0 8 -4 8 -15 -1 -8 -7 -15 -9 -15 -5 0 4 -8 1 -17 -6 -14
-12 -16 -12 -8 0 6 11 4 13 -11 6 -10 -4 -28 -8 -39 -9 -11 -1 -25 -4 -32 -9
-6 -4 -18 -4 -27 -1 -9 3 -16 2 -16 -4 0 -5 -18 -12 -40 -16 -22 -3 -40 -12
-40 -19 0 -8 -4 -7 -10 3 -7 11 -10 12 -10 2 0 -9 -7 -11 -22 -6 -21 6 -22 5
-8 -11 14 -17 13 -17 -7 -7 -30 16 -84 14 -107 -3 -11 -8 -28 -15 -39 -15 -13
0 -17 -5 -13 -15 7 -19 -1 -19 -20 0 -9 8 -27 18 -42 21 -15 3 -44 13 -65 22
-32 14 -36 18 -23 28 8 6 20 23 25 37 6 15 17 27 25 27 22 0 37 26 39 69 2 35
4 39 14 25 7 -9 10 -22 6 -28 -3 -6 -3 -8 2 -4 4 4 14 3 22 -4 11 -9 13 -8 11
2 -2 8 4 14 12 15 8 1 14 7 12 14 -1 7 2 10 7 6 6 -3 7 -13 4 -22 -4 -11 -3
-14 5 -9 7 4 12 14 12 23 0 14 3 13 22 -3 12 -10 18 -13 13 -5 -6 11 -4 13 8
8 12 -5 17 -1 17 13 0 10 5 22 10 25 6 3 10 1 10 -6 0 -8 4 -8 15 1 9 7 15 20
14 29 -3 30 1 42 11 36 12 -8 13 7 1 21 -13 14 -20 79 -11 94 4 7 15 10 24 7
10 -4 16 -1 16 7 0 8 6 16 13 19 6 3 2 4 -10 4 -12 -1 -19 -5 -17 -9 3 -4 -2
-8 -10 -8 -14 0 -17 42 -3 56 3 3 4 11 1 18 -3 7 0 23 5 37 5 13 10 18 10 12
1 -7 6 -13 11 -13 6 0 9 13 8 29 -2 22 -5 27 -14 20 -8 -6 -14 -5 -17 5 -4 9
3 22 16 31 25 17 37 19 37 5z m-5978 -87 c-2 -7 -8 -13 -14 -13 -5 0 -6 5 -3
10 4 6 1 17 -5 25 -9 11 -9 17 2 29 11 12 14 10 19 -13 3 -14 3 -32 1 -38z
m-52 37 c-13 -8 -12 -10 3 -10 18 0 23 -15 8 -24 -5 -4 -12 0 -15 6 -3 7 -3 1
0 -13 4 -21 0 -31 -25 -48 l-31 -22 0 24 c0 14 10 32 23 41 12 9 15 14 7 10
-13 -7 -13 -6 0 11 9 11 10 16 3 11 -7 -4 -13 -2 -13 4 0 11 42 31 50 23 2 -2
-2 -8 -10 -13z m6825 -49 c-6 -5 -25 10 -25 20 0 5 6 4 14 -3 8 -7 12 -15 11
-17z m38 -21 c3 -11 1 -20 -4 -20 -5 0 -9 7 -9 16 0 9 -5 12 -12 8 -7 -4 -8
-3 -4 4 11 18 23 14 29 -8z m-38 -110 c-10 -16 14 -40 39 -41 20 0 21 -1 1 -9
-19 -8 -19 -9 3 -9 12 -1 25 -8 29 -17 5 -15 7 -15 15 0 7 12 14 14 28 6 10
-5 26 -7 34 -4 10 4 16 1 16 -7 0 -10 3 -10 12 -1 8 8 16 2 30 -24 10 -19 16
-39 13 -44 -3 -5 -1 -11 4 -15 17 -10 -10 -55 -33 -56 -47 -3 -169 1 -174 6
-3 3 -12 -1 -20 -8 -13 -10 -14 -9 -8 10 4 12 2 24 -3 28 -7 3 -8 0 -5 -9 3
-9 1 -16 -5 -16 -6 0 -11 8 -11 18 0 14 -2 15 -10 2 -5 -8 -10 -10 -10 -4 0 5
6 16 13 23 10 11 9 13 -5 8 -13 -4 -15 -2 -11 10 5 13 0 15 -25 11 -27 -4 -32
-1 -32 15 0 11 11 30 25 43 14 13 26 33 26 46 1 17 3 18 6 6 4 -17 6 -17 21
-1 9 9 18 20 18 25 3 16 4 18 15 18 5 0 7 -5 4 -10z m35 -14 c0 -3 -4 -8 -10
-11 -5 -3 -10 -1 -10 4 0 6 5 11 10 11 6 0 10 -2 10 -4z m-507 -173 c-7 -2
-19 -2 -25 0 -7 3 -2 5 12 5 14 0 19 -2 13 -5z m-584 -296 c-2 -1 -13 -9 -24
-17 -19 -14 -19 -14 -6 3 7 9 18 17 24 17 6 0 8 -1 6 -3z m-15 -54 c-7 -25 -6
-26 26 -20 28 6 31 5 20 -8 -7 -9 -15 -13 -18 -11 -2 3 -13 1 -23 -5 -17 -9
-19 -6 -19 24 0 30 6 47 17 47 2 0 0 -12 -3 -27z m86 -34 c0 -6 -4 -7 -10 -4
-5 3 -10 11 -10 16 0 6 5 7 10 4 6 -3 10 -11 10 -16z m-6349 -215 c-11 -27
-27 -74 -36 -104 -23 -77 -44 -122 -56 -115 -15 10 -10 32 15 70 14 20 30 53
37 73 17 54 51 133 55 129 3 -2 -4 -26 -15 -53z m2218 -219 c158 -38 284 -133
346 -259 33 -67 55 -148 55 -202 l0 -24 -204 0 -203 0 -6 40 c-11 84 -76 132
-181 133 -127 1 -197 -74 -151 -162 24 -48 97 -81 262 -121 196 -47 330 -114
415 -209 56 -62 84 -131 94 -231 l7 -72 76 -49 76 -49 3 600 2 600 215 0 215
0 0 -271 0 -272 94 5 c106 6 160 28 192 81 10 18 53 127 95 242 l76 210 231 3
c149 1 232 -1 232 -8 0 -5 -54 -147 -121 -314 -106 -267 -138 -337 -199 -432
-12 -20 0 -47 160 -340 95 -176 183 -338 197 -361 l24 -43 -253 0 -253 0 -142
279 -143 278 -52 7 c-74 8 -126 7 -132 -3 -3 -5 -3 -129 1 -276 l6 -267 96
-62 c192 -124 161 -113 318 -115 l102 -1 3 -77 3 -77 164 -105 164 -105 20 30
c83 116 235 236 371 293 155 65 212 75 416 75 168 -1 194 -3 284 -27 290 -78
509 -266 613 -527 12 -30 22 -61 22 -67 1 -10 -60 -13 -270 -13 l-272 0 -48
50 c-162 169 -471 169 -637 0 -45 -45 -71 -86 -60 -94 37 -26 276 -176 281
-176 4 0 7 16 7 35 l0 35 519 0 519 0 4 -57 c5 -86 -9 -263 -27 -335 -83 -330
-301 -555 -630 -654 -79 -23 -113 -27 -270 -32 l-180 -5 -1781 -1133 c-980
-624 -1784 -1134 -1788 -1134 -3 0 -6 339 -6 753 l1 752 620 395 c341 217 623
398 625 402 3 4 -60 8 -140 8 l-146 0 0 895 0 895 172 0 c198 0 194 -6 46 88
l-96 62 -52 -10 c-80 -15 -271 -12 -358 6 -235 48 -392 203 -422 414 -11 75
-8 85 22 92 11 2 -37 37 -125 93 l-142 91 -3 322 c-1 177 1 322 4 322 4 0 60
-34 124 -75 64 -41 122 -75 128 -75 7 0 12 8 12 18 0 31 57 135 97 175 114
118 274 171 488 162 61 -2 139 -11 174 -20z m2601 -262 c73 -142 136 -262 140
-267 5 -5 69 111 142 258 l133 266 242 0 c134 0 243 -4 243 -8 0 -10 -232
-430 -413 -749 l-127 -223 0 -260 0 -260 -215 0 -215 0 0 260 0 261 -109 192
c-166 294 -431 774 -431 781 0 3 108 6 239 6 l239 0 132 -257z m-6682 -97 c12
-2 27 -8 32 -11 6 -3 10 -1 10 5 0 6 4 9 9 5 5 -3 12 -1 16 5 12 19 30 10 30
-15 0 -14 -3 -25 -6 -25 -4 0 -10 -16 -13 -36 -6 -28 -14 -38 -42 -50 -19 -8
-34 -18 -34 -22 0 -10 -51 -32 -61 -26 -5 3 -9 -2 -9 -10 0 -19 -5 -20 -31 -5
-11 5 -17 14 -15 18 3 4 -1 8 -9 8 -8 0 -12 -4 -9 -9 3 -4 1 -8 -5 -8 -5 0
-13 5 -16 11 -4 6 -13 8 -21 5 -8 -3 -14 -1 -14 5 0 6 -4 7 -10 4 -5 -3 -10 1
-10 10 0 10 6 15 13 12 21 -8 13 70 -10 96 -37 40 -21 48 85 43 54 -2 107 -7
120 -10z m-750 -29 c27 -25 28 -37 2 -37 -11 0 -20 -4 -20 -8 0 -4 -13 -15
-29 -25 -28 -16 -31 -16 -73 2 -39 16 -44 22 -46 54 -2 35 -1 36 35 39 63 5
107 -3 131 -25z m-731 2 c41 -16 95 -17 100 -2 12 31 143 -3 143 -37 0 -7 -5
-8 -12 -3 -16 9 -170 14 -166 5 2 -4 10 -19 17 -34 8 -16 20 -28 26 -28 7 0
19 -7 26 -17 13 -15 12 -15 -8 -4 -20 10 -23 9 -24 -6 -3 -77 -27 -131 -71
-164 -49 -35 -79 -40 -48 -7 24 26 27 46 4 27 -9 -8 -37 -15 -63 -16 -25 -1
-48 -2 -51 -3 -3 0 2 -5 10 -11 11 -8 8 -9 -15 -4 -104 23 -128 194 -40 282
29 29 39 33 88 33 31 0 68 -5 84 -11z m3125 -19 c21 -8 40 -22 44 -32 3 -10 9
-18 13 -18 17 0 -4 -71 -30 -101 -16 -18 -29 -37 -29 -41 0 -5 -4 -7 -9 -3 -5
3 -13 0 -16 -5 -6 -10 -51 -31 -65 -31 -3 0 -12 -6 -20 -13 -22 -19 -50 -27
-50 -15 0 6 -4 8 -9 5 -5 -3 -14 1 -21 9 -7 8 -17 15 -22 15 -17 0 -88 61 -88
75 0 7 -6 15 -12 17 -9 3 -5 19 13 54 21 42 31 51 69 62 25 8 52 16 60 19 8 4
31 8 50 11 19 2 36 5 38 7 6 6 47 -2 84 -15z m751 -40 c45 -21 129 -96 148
-132 16 -30 2 -20 -48 33 -58 62 -120 99 -193 116 l-55 13 51 -4 c29 -3 72
-14 97 -26z m-3758 10 c3 -5 1 -10 -4 -10 -6 0 -11 5 -11 10 0 6 2 10 4 10 3
0 8 -4 11 -10z m2292 -40 c-2 -27 -17 -45 -17 -20 0 6 -9 10 -21 10 -11 0 -17
5 -14 10 3 6 0 11 -7 11 -11 1 26 13 54 18 4 0 6 -12 5 -29z m-1797 0 c0 -5
-2 -10 -4 -10 -3 0 -8 5 -11 10 -3 6 -1 10 4 10 6 0 11 -4 11 -10z m-393 -6
c-3 -3 -12 -4 -19 -1 -8 3 -5 6 6 6 11 1 17 -2 13 -5z m3208 -176 c-4 -24 -20
-72 -35 -108 -15 -36 -30 -74 -33 -85 -4 -16 -5 -14 -6 6 0 15 6 46 14 69 8
23 15 45 15 47 0 13 -89 -94 -90 -108 0 -24 -36 -54 -46 -38 -5 9 -11 7 -22
-7 -13 -18 -14 -18 -7 6 12 44 56 103 134 181 42 42 78 77 79 78 2 0 1 -18 -3
-41z m6185 -38 c0 -5 -5 -10 -11 -10 -5 0 -7 5 -4 10 3 6 8 10 11 10 2 0 4 -4
4 -10z m-9667 -7 c-7 -2 -21 -2 -30 0 -10 3 -4 5 12 5 17 0 24 -2 18 -5z
m9692 -13 c-3 -5 -14 -10 -23 -9 -14 0 -13 2 3 9 27 11 27 11 20 0z m-4 -19
c16 10 46 12 36 3 -3 -4 0 -13 8 -20 9 -10 11 -22 5 -42 -14 -47 -29 -78 -30
-62 0 12 -3 11 -11 -3 -8 -14 -14 -16 -24 -7 -11 10 -13 6 -9 -17 3 -15 12
-35 20 -44 20 -22 17 -39 -6 -39 -11 0 -20 7 -20 15 0 8 -6 15 -12 15 -9 0 -8
3 2 10 12 7 12 14 2 44 -17 45 -25 112 -17 137 5 14 10 17 24 10 10 -6 23 -6
32 0z m-6285 -208 c-2 -16 -5 -32 -5 -38 -1 -5 -6 -2 -12 7 -7 12 -6 24 1 38
15 28 22 25 16 -7z m6324 17 c0 -5 -5 -10 -11 -10 -5 0 -7 5 -4 10 3 6 8 10
11 10 2 0 4 -4 4 -10z m2800 -240 c0 -5 -5 -10 -11 -10 -5 0 -7 5 -4 10 3 6 8
10 11 10 2 0 4 -4 4 -10z m2 -27 c-6 -2 -9 -10 -6 -15 4 -7 2 -8 -5 -4 -13 9
-5 26 12 25 9 0 8 -2 -1 -6z m-9073 -183 c0 -23 -1 -23 -9 -5 -5 11 -9 29 -9
40 -1 17 1 17 9 5 5 -8 9 -26 9 -40z m-29 -82 c0 -17 -3 -28 -7 -24 -11 10
-11 56 -1 56 4 0 8 -14 8 -32z m-655 -188 c204 -45 364 -159 439 -311 36 -73
65 -184 66 -246 l0 -33 -243 0 -244 0 -12 56 c-8 34 -24 68 -43 90 -77 88
-293 82 -349 -10 -29 -48 -25 -99 13 -141 45 -52 88 -71 266 -116 86 -22 178
-47 204 -55 26 -9 53 -12 59 -8 7 4 9 3 6 -3 -4 -6 7 -13 25 -17 17 -3 39 -13
47 -20 14 -12 18 -12 29 0 7 8 8 14 2 14 -13 0 -13 27 0 35 6 4 7 -1 3 -12 -6
-15 -4 -16 9 -5 13 10 18 10 24 1 4 -8 3 -9 -4 -5 -8 5 -12 0 -12 -13 0 -12
-4 -21 -10 -21 -22 0 -8 -20 33 -43 57 -34 139 -122 171 -185 75 -149 73 -355
-5 -502 -51 -96 -153 -186 -264 -233 -131 -56 -365 -81 -540 -58 -100 14 -248
59 -312 97 -122 71 -225 210 -259 348 -9 39 -21 74 -27 77 -5 4 -35 5 -66 3
-31 -3 -60 -5 -66 -5 -5 0 -43 1 -82 4 -40 2 -73 1 -73 -2 0 -3 -31 -6 -70 -6
-38 0 -70 4 -70 8 0 5 -4 6 -8 3 -10 -6 -77 -8 -112 -3 -14 2 -36 -1 -49 -5
-15 -5 -29 -4 -37 3 -11 9 -14 8 -14 -1 0 -9 -4 -9 -17 1 -9 8 -18 13 -20 12
-12 -10 -62 0 -67 12 -7 21 -18 153 -10 138 3 -7 14 -13 25 -13 10 0 19 6 19
13 0 9 3 8 9 -2 5 -7 14 -10 21 -6 15 9 109 12 103 3 -2 -5 1 -8 6 -8 6 0 11
5 11 10 0 7 6 7 18 2 9 -5 36 -8 60 -7 24 0 45 -3 48 -7 3 -4 14 -3 25 3 11 6
25 7 32 2 12 -8 38 -8 112 0 22 3 48 1 58 -4 12 -7 17 -6 17 3 0 9 3 9 11 1 8
-8 19 -9 37 -2 18 7 28 6 34 -3 4 -7 8 -8 8 -3 0 11 100 15 100 4 0 -6 79 -4
177 3 22 2 39 0 36 -4 -2 -5 1 -8 6 -8 6 0 11 4 11 10 0 6 9 6 23 1 13 -5 29
-6 36 -1 7 4 22 5 32 3 11 -3 25 0 32 6 8 6 17 8 20 4 10 -9 167 -10 167 -1 0
4 7 4 17 1 12 -5 14 -3 8 8 -7 11 -6 12 7 2 8 -7 18 -10 21 -6 4 3 7 0 7 -8 0
-11 2 -11 10 1 6 10 10 11 10 3 0 -8 7 -10 23 -5 12 4 33 7 47 7 14 0 28 6 31
14 4 11 8 11 21 -3 13 -12 17 -13 21 -2 4 10 -33 23 -145 50 -233 56 -359 117
-461 222 -88 91 -127 200 -127 359 0 258 177 454 465 515 126 26 320 26 440 0z
m1886 -13 c359 -93 600 -341 680 -702 9 -37 13 -119 13 -215 -1 -186 -18 -263
-93 -415 -206 -417 -713 -606 -1224 -454 -152 45 -325 159 -420 277 -131 163
-188 312 -208 541 -12 143 -3 237 38 366 90 286 314 501 618 593 163 49 426
53 596 9z m-1207 -158 c9 -23 14 -44 11 -48 -10 -9 -45 42 -45 67 0 35 16 26
34 -19z m-1757 -625 c12 -19 13 -27 3 -39 -7 -8 -16 -13 -20 -10 -5 3 -6 -3
-3 -14 4 -15 -3 -20 -31 -25 -25 -5 -34 -11 -29 -19 5 -8 2 -8 -9 1 -13 10
-19 10 -31 -3 -18 -17 -31 -20 -21 -4 4 7 -3 6 -17 -2 -13 -7 -35 -13 -49 -15
-50 -4 -103 -15 -118 -23 -9 -5 -26 -5 -38 -1 -15 6 -24 5 -26 -2 -2 -6 -22
-11 -43 -10 -21 1 -44 -3 -52 -9 -10 -9 -13 -8 -13 1 0 10 -3 10 -14 1 -11 -9
-15 -9 -20 1 -5 10 -7 10 -12 1 -4 -9 -11 -10 -23 -3 -10 5 -21 6 -25 3 -3 -3
-6 0 -6 7 0 9 -6 8 -20 -5 -18 -16 -25 -14 -21 7 0 4 -9 7 -21 5 -18 -2 -26 9
-50 73 -15 41 -28 78 -28 82 0 3 80 6 178 5 180 0 325 6 352 17 8 3 24 4 35 2
11 -1 30 0 43 3 12 3 43 5 68 3 34 -3 49 -10 61 -28z m7239 -5251 c8 -18 14
-44 14 -58 0 -30 -5 -29 67 -10 72 19 231 19 301 1 223 -60 400 -235 456 -453
20 -77 21 -231 1 -308 -51 -201 -209 -373 -407 -442 -62 -22 -91 -26 -193 -27
-156 0 -232 22 -356 105 -117 78 -219 224 -254 364 -8 32 -15 102 -15 155 0
53 7 123 15 155 36 142 142 292 259 365 75 47 89 94 60 200 l-7 25 23 -20 c12
-11 29 -34 36 -52z m1180 -344 c56 -34 65 -69 62 -236 l-3 -148 -28 -3 c-16
-2 -34 2 -42 8 -9 7 -15 8 -20 0 -13 -21 -66 -11 -96 19 -27 27 -29 35 -29
106 0 79 16 127 45 139 29 11 63 7 79 -10 15 -14 16 -14 16 5 0 73 -137 83
-169 13 -17 -36 -25 -139 -17 -206 10 -80 39 -111 103 -111 26 0 54 3 62 5 8
3 17 -6 24 -24 15 -44 -11 -58 -95 -54 -136 7 -188 96 -175 297 10 133 56 205
144 221 51 9 101 1 139 -21z m1517 -29 l27 -30 0 -200 0 -200 -45 0 -45 0 0
55 0 55 -35 0 -35 0 0 -55 0 -55 -45 0 -45 0 0 200 0 200 28 31 c50 56 144 56
195 -1z m249 36 c32 -12 44 -11 81 2 41 15 46 14 88 -6 75 -36 79 -52 79 -271
l0 -191 -50 0 -50 0 0 184 c0 150 -3 186 -15 196 -8 7 -22 10 -30 6 -13 -4
-15 -35 -15 -196 l0 -190 -50 0 -50 0 -2 186 c-3 164 -5 188 -20 198 -11 7
-21 7 -27 1 -5 -6 -12 -91 -15 -190 -3 -99 -6 -183 -6 -187 0 -5 -20 -8 -45
-8 l-45 0 0 190 c0 205 5 232 52 262 22 15 50 25 73 26 6 1 27 -5 47 -12z
m460 4 c20 -6 48 -24 62 -41 l26 -31 0 -199 0 -200 -47 3 -48 3 -3 53 c-3 50
-4 52 -33 52 -29 0 -29 -1 -29 -55 l0 -55 -51 0 -50 0 3 199 c3 197 3 200 28
226 23 26 73 54 95 55 6 0 27 -5 47 -10z m337 -18 c45 -33 51 -56 51 -220 0
-174 -7 -199 -66 -227 -54 -26 -118 -16 -158 24 l-31 31 0 174 c0 160 2 176
20 196 46 52 131 62 184 22z m-2349 -217 l0 -235 -45 0 -45 0 0 228 c0 126 3
232 7 235 3 4 24 7 45 7 l38 0 0 -235z m234 221 c18 -7 43 -26 55 -42 21 -26
22 -37 19 -132 -3 -103 -3 -104 -36 -133 -25 -23 -42 -29 -77 -29 l-45 0 0
-60 0 -60 -45 0 -45 0 0 228 c0 126 3 232 7 235 12 12 133 7 167 -7z m301 -2
c40 -19 61 -48 70 -98 9 -48 -1 -98 -25 -124 -20 -21 -20 -21 0 -54 15 -25 20
-51 20 -105 l0 -73 -45 0 -45 0 0 65 c0 57 -3 69 -25 90 -13 14 -29 25 -35 25
-6 0 -10 -34 -10 -90 l0 -90 -45 0 -45 0 0 228 c0 126 3 232 7 235 13 14 145
7 178 -9z m190 -16 c3 -18 14 -80 24 -138 20 -117 17 -121 49 65 l17 100 43 3
c33 3 42 0 42 -13 0 -9 -20 -112 -45 -229 -25 -118 -45 -217 -45 -221 0 -3
-19 -5 -42 -3 l-42 3 -47 224 c-26 124 -46 229 -43 233 3 4 23 8 44 8 36 0 40
-2 45 -32z m300 10 c3 -13 4 -117 3 -233 l-3 -210 -47 -3 -48 -3 0 229 c0 126
3 232 7 235 3 4 23 7 44 7 32 0 40 -4 44 -22z m-217 -544 c34 -9 26 -22 -15
-26 -50 -4 -52 -23 -4 -48 30 -15 41 -27 41 -43 0 -33 -19 -47 -62 -47 -49 0
-50 18 -1 22 52 4 57 32 10 52 -42 17 -51 30 -43 61 5 20 15 27 46 34 3 0 15
-2 28 -5z m-1170 -16 c30 -30 -3 -88 -50 -88 -13 0 -18 -8 -18 -30 0 -16 -4
-30 -10 -30 -6 0 -10 33 -10 80 l0 80 38 0 c21 0 43 -5 50 -12z m142 -58 l0
-70 34 0 c19 0 38 -4 41 -10 4 -6 -13 -10 -44 -10 l-51 0 0 80 c0 47 4 80 10
80 6 0 10 -30 10 -70z m272 -6 c31 -78 32 -84 18 -84 -5 0 -12 11 -16 25 -5
21 -12 25 -40 25 -28 0 -36 -5 -44 -25 -5 -14 -14 -25 -20 -25 -8 0 7 49 45
143 12 30 29 13 57 -59z m155 41 c9 -19 20 -35 23 -35 3 0 14 16 23 35 9 19
21 35 27 35 6 0 -1 -22 -15 -50 -14 -27 -25 -63 -25 -80 0 -16 -4 -30 -10 -30
-5 0 -10 15 -10 33 0 17 -11 50 -25 72 -27 44 -30 55 -15 55 6 0 18 -16 27
-35z m213 -35 l0 -70 35 0 c19 0 35 -4 35 -10 0 -5 -20 -10 -45 -10 l-45 0 0
80 c0 47 4 80 10 80 6 0 10 -30 10 -70z m200 43 c0 -54 -13 -133 -21 -133 -5
0 -9 36 -9 80 0 64 3 80 15 80 10 0 15 -10 15 -27z m425 17 c-3 -5 -15 -10
-26 -10 -17 0 -19 -7 -19 -70 0 -38 -4 -70 -9 -70 -9 0 -21 58 -21 108 0 25
-4 32 -19 32 -11 0 -23 5 -26 10 -4 6 18 10 60 10 42 0 64 -4 60 -10z"/>
<path d="M12240 13760 c0 -5 5 -10 10 -10 6 0 10 5 10 10 0 6 -4 10 -10 10 -5
0 -10 -4 -10 -10z"/>
<path d="M10855 10860 c-3 -6 1 -7 9 -4 18 7 21 14 7 14 -6 0 -13 -4 -16 -10z"/>
<path d="M6270 8206 c0 -7 562 -760 586 -786 12 -12 14 17 14 197 l0 211 -277
178 c-153 97 -288 184 -300 192 -13 8 -23 11 -23 8z"/>
<path d="M7380 7430 l0 -71 43 26 c23 14 49 30 57 35 17 11 21 8 -57 55 l-43
26 0 -71z"/>
<path d="M6280 7041 c0 -303 3 -381 13 -375 6 4 94 59 194 122 l182 115 -57
76 c-30 42 -118 159 -194 260 l-138 184 0 -382z"/>
<path d="M2594 7011 c-8 -9 -3 -20 23 -52 41 -48 95 -69 185 -69 87 0 121 10
161 48 40 38 36 54 -13 49 -22 -2 -40 -1 -40 2 0 4 -26 7 -57 6 -32 0 -61 4
-65 10 -5 6 -8 5 -8 -3 0 -10 -5 -10 -20 -2 -11 6 -35 9 -55 7 -19 -2 -37 -2
-40 1 -6 6 -65 9 -71 3z"/>
<path d="M4448 7851 c-153 -49 -251 -158 -292 -322 -20 -80 -20 -133 -2 -220
49 -228 236 -364 476 -346 245 19 410 199 410 446 0 278 -182 462 -454 460
-50 0 -103 -7 -138 -18z"/>
<path d="M9250 2204 c-36 -7 -71 -16 -77 -19 -18 -6 -16 -25 2 -25 8 0 15 3
15 8 0 8 13 10 155 18 130 7 201 -8 310 -64 139 -72 264 -236 295 -388 18 -84
8 -245 -18 -318 -141 -389 -606 -518 -926 -259 -113 91 -195 249 -211 403 -9
92 15 217 60 307 37 75 125 180 176 210 28 17 44 41 34 51 -9 9 -116 -82 -160
-136 -88 -112 -135 -243 -135 -384 0 -105 15 -168 62 -268 33 -69 56 -100 122
-165 124 -123 257 -179 426 -178 169 0 308 59 430 182 221 223 240 562 44 811
-140 179 -379 263 -604 214z"/>
<path d="M9262 2161 c-45 -12 -46 -14 -27 -52 26 -49 31 -136 11 -184 -11 -25
-13 -41 -6 -43 5 -2 10 -28 10 -58 l0 -54 -40 0 c-34 0 -40 3 -40 21 0 17 -8
12 -40 -27 -22 -27 -40 -52 -40 -56 0 -5 11 -8 25 -8 l25 0 0 -265 0 -265 -40
0 -40 0 -1 243 c0 238 -6 268 -28 152 l-8 -40 -18 40 c-21 45 -31 137 -21 189
4 20 39 84 78 143 92 139 141 251 103 237 -8 -4 -15 -12 -15 -19 0 -18 -75
-165 -100 -195 l-21 -25 3 78 c2 42 0 77 -4 77 -3 0 -33 -29 -65 -64 -100
-109 -144 -227 -145 -381 0 -387 380 -657 746 -530 322 112 468 479 315 791
-59 120 -182 228 -314 275 -66 23 -243 35 -303 20z m248 -127 c125 -29 180
-91 180 -203 0 -73 -12 -106 -53 -149 -46 -47 -134 -72 -258 -72 l-99 0 0 30
0 30 85 0 c118 0 180 15 223 55 32 29 36 39 39 91 5 69 -17 113 -66 138 -35
19 -142 36 -223 36 -58 0 -58 0 -58 30 l0 30 83 0 c45 0 111 -7 147 -16z m15
-98 c45 -19 67 -55 67 -112 0 -88 -65 -124 -226 -124 l-86 0 0 35 0 35 83 1
c105 0 151 15 155 50 5 42 -20 53 -132 59 -96 5 -101 6 -104 28 -8 52 0 56
109 48 55 -3 115 -13 134 -20z m-275 -501 l0 -265 -40 0 -40 0 0 265 0 265 40
0 40 0 0 -265z m270 92 c63 -41 75 -76 78 -224 l4 -133 -41 0 -41 0 0 129 c0
173 -1 175 -139 179 l-101 4 0 34 0 34 104 0 c90 0 107 -3 136 -23z m117 1
c46 -51 53 -80 53 -223 l0 -135 -30 0 -30 0 0 137 c0 151 -8 174 -74 221 l-31
22 46 0 c34 0 51 -5 66 -22z"/>
<path d="M10256 1734 c-9 -23 -7 -77 3 -92 5 -8 17 -12 27 -10 21 3 30 51 20
94 -7 27 -41 33 -50 8z"/>
<path d="M11722 1858 c-8 -8 -12 -45 -12 -100 l0 -88 35 0 35 0 0 88 c0 85 -8
112 -35 112 -6 0 -16 -5 -23 -12z"/>
<path d="M12492 1858 c-8 -8 -12 -44 -12 -100 l0 -88 30 0 31 0 -3 97 c-2 78
-6 98 -18 101 -9 1 -21 -3 -28 -10z"/>
<path d="M12791 1856 c-8 -9 -11 -59 -9 -152 l3 -139 25 0 25 0 3 139 c2 131
-3 166 -28 166 -4 0 -13 -6 -19 -14z"/>
<path d="M10690 1771 l0 -91 30 0 c36 0 42 18 38 110 l-3 65 -32 3 -33 3 0
-90z"/>
<path d="M10980 1796 c0 -57 2 -66 18 -66 38 0 53 23 50 75 -3 48 -4 50 -35
53 l-33 3 0 -65z"/>
<path d="M10110 1335 c0 -32 3 -36 21 -33 27 4 48 33 34 47 -6 5 -20 12 -32
16 -21 6 -23 3 -23 -30z"/>
<path d="M10541 1326 c-13 -33 -10 -39 17 -34 17 3 17 6 6 33 l-12 30 -11 -29z"/>
</g>
</svg>
